<svg width="544" height="28" viewBox="0 0 544 28" fill="none" xmlns="http://www.w3.org/2000/svg">
<path d="M119.137 11.3281C163.08 9.39061 206.747 9.9479 250.413 14.3698C252.351 14.6458 256.221 14.0937 255.939 16.5833C255.663 18.7969 252.075 17.4114 250.137 17.1354C185.742 12.7135 120.794 13.2656 56.1218 16.5833C38.7103 17.4114 21.5749 17.9687 4.16344 16.5833C2.78323 16.5833 -0.258439 16.8594 0.0176019 14.9219C0.293643 13.2656 2.78323 14.3698 4.16344 14.3698C37.0541 14.9219 69.9395 12.7135 102.83 11.3281C108.356 11.3281 113.882 11.3281 119.137 11.3281Z" fill="#393535"/>
<path d="M420.111 10.776C463.778 12.1563 499.705 14.9219 535.913 14.6458C537.846 14.6458 539.778 14.6458 541.715 14.3698C542.544 14.3698 543.372 14.0937 543.372 15.2031C543.372 16.0312 542.544 16.3073 541.991 16.3073C538.122 16.5833 534.528 17.1354 530.658 17.4115C497.221 18.2448 463.778 15.4792 430.335 14.6458C383.627 13.5417 336.919 14.6458 290.21 17.6927C289.106 17.6927 286.898 18.2448 286.898 16.8594C286.898 14.6458 289.382 14.9219 290.767 14.9219C310.387 12.4375 330.012 11.8802 349.632 11.0521C375.611 9.67187 401.59 9.94792 420.111 10.776Z" fill="#393535"/>
<mask id="mask0_4_242" style="mask-type:luminance" maskUnits="userSpaceOnUse" x="258" y="0" width="26" height="28">
<path d="M258.044 0H283.377V27.9219H258.044V0Z" fill="white"/>
</mask>
<g mask="url(#mask0_4_242)">
<path d="M283.304 9.39061C282.476 17.6927 276.669 22.6667 271.143 27.3698C270.314 27.9219 269.486 27.3698 268.934 26.8177C265.064 22.3906 260.919 17.6927 259.257 11.8802C258.705 9.94791 258.705 8.0104 258.705 6.07291C258.981 3.03124 260.367 0.541655 263.679 0.265613C267.273 -0.010428 269.21 2.47915 270.314 5.24478C271.419 8.0104 271.971 9.11457 274.736 6.62499C276.393 4.96874 278.606 4.1354 281.09 5.24478C283.028 6.07291 283.304 7.45832 283.304 9.39061Z" fill="#393535"/>
</g>
</svg>
